<?xml version="1.0" encoding="UTF-8" standalone="no"?>
<svg
   xmlns:dc="http://purl.org/dc/elements/1.1/"
   xmlns:cc="http://creativecommons.org/ns#"
   xmlns:rdf="http://www.w3.org/1999/02/22-rdf-syntax-ns#"
   xmlns:svg="http://www.w3.org/2000/svg"
   xmlns="http://www.w3.org/2000/svg"
   xmlns:xlink="http://www.w3.org/1999/xlink"
   xmlns:sodipodi="http://sodipodi.sourceforge.net/DTD/sodipodi-0.dtd"
   xmlns:inkscape="http://www.inkscape.org/namespaces/inkscape"
   id="svg4451"
   version="1.1"
   viewBox="0 0 210 297"
   height="297mm"
   width="210mm"
   sodipodi:docname="sbtmh_insert.svg"
   inkscape:export-filename="/home/luizirber/Desktop/test.png"
   inkscape:export-xdpi="96"
   inkscape:export-ydpi="96"
   inkscape:version="0.92.1 r">
  <sodipodi:namedview
     pagecolor="#ffffff"
     bordercolor="#666666"
     borderopacity="1"
     objecttolerance="10"
     gridtolerance="10"
     guidetolerance="10"
     inkscape:pageopacity="0"
     inkscape:pageshadow="2"
     inkscape:window-width="1918"
     inkscape:window-height="1060"
     id="namedview51"
     showgrid="false"
     inkscape:zoom="2.0409673"
     inkscape:cx="227.63073"
     inkscape:cy="688.6946"
     inkscape:window-x="0"
     inkscape:window-y="18"
     inkscape:window-maximized="0"
     inkscape:current-layer="svg4451" />
  <defs
     id="defs4445">
    <marker
       inkscape:stockid="Arrow1Lstart"
       orient="auto"
       refY="0.0"
       refX="0.0"
       id="Arrow1Lstart"
       style="overflow:visible"
       inkscape:isstock="true">
      <path
         id="path11327"
         d="M 0.0,0.0 L 5.0,-5.0 L -12.5,0.0 L 5.0,5.0 L 0.0,0.0 z "
         style="fill-rule:evenodd;stroke:#000000;stroke-width:1.0pt"
         transform="scale(0.8) translate(12.5,0)" />
    </marker>
    <symbol
       id="Extract">
      <title
         id="title7303">Extract</title>
      <desc
         id="desc7305">Removal of one or more specific sets of times from a set. (ISO)</desc>
      <path
         d="m 35,115 40,-70 40,70 z"
         style="stroke-width:2"
         id="path7307" />
    </symbol>
    <symbol
       id="Decision">
      <title
         id="title7266">Decision</title>
      <desc
         id="desc7268">A decision or switching type operation.</desc>
      <path
         d="m 15,75 60,-40 60,40 -60,40 z"
         style="stroke-width:2"
         id="path7270" />
    </symbol>
    <symbol
       id="Connector">
      <title
         id="title7352">Connector</title>
      <desc
         id="desc7354">Exit to or entry from another part of chart.</desc>
      <circle
         cx="75"
         cy="75"
         r="20"
         style="stroke-width:2"
         id="circle7356" />
    </symbol>
    <symbol
       id="ManualOperation">
      <title
         id="title7245">Manual Operation</title>
      <desc
         id="desc7247">An offline process (at &quot;human speed&quot;).</desc>
      <path
         d="m 15,35 120,0 -30,80 -60,0 z"
         style="stroke-width:2px"
         id="path7249" />
    </symbol>
    <symbol
       id="Merge">
      <title
         id="title7259">Merge</title>
      <desc
         id="desc7261">Combine two or more sets of items into one set. (ISO)</desc>
      <path
         d="m 35,35 80,0 -40,70 z"
         style="stroke-width:2"
         id="path7263" />
    </symbol>
  </defs>
  <metadata
     id="metadata4448">
    <rdf:RDF>
      <cc:Work
         rdf:about="">
        <dc:format>image/svg+xml</dc:format>
        <dc:type
           rdf:resource="http://purl.org/dc/dcmitype/StillImage" />
        <dc:title></dc:title>
      </cc:Work>
    </rdf:RDF>
  </metadata>
  <rect
     style="fill:#e6e6e6;stroke:#000000;stroke-width:0.24983597;stroke-opacity:1"
     id="rect3972-4"
     width="124.896"
     height="35.497433"
     x="6.0794668"
     y="114.94714" />
  <rect
     style="fill:#008080;stroke:#000000;stroke-width:0.2165827;stroke-opacity:1"
     id="rect12-9"
     width="14.183227"
     height="5.2916665"
     x="69.230232"
     y="144.16879" />
  <rect
     style="fill:#008080;stroke:#000000;stroke-width:0.2165827;stroke-opacity:1"
     id="rect12-3-0"
     width="14.183227"
     height="5.2916665"
     x="84.831795"
     y="144.16879" />
  <rect
     style="fill:#008080;stroke:#000000;stroke-width:0.2165827;stroke-opacity:1"
     id="rect12-3-6-1"
     width="14.183227"
     height="5.2916665"
     x="100.43333"
     y="144.16879" />
  <rect
     style="fill:#d35f5f;stroke:#000000;stroke-width:0.2165827;stroke-opacity:1"
     id="rect12-3-6-7-2"
     width="14.183227"
     height="5.2916665"
     x="116.03489"
     y="144.16879" />
  <rect
     style="fill:#e9afaf;fill-opacity:1;stroke:#000000;stroke-width:0.2165827;stroke-opacity:1"
     id="rect12-3-64-9-1"
     width="14.183227"
     height="5.2916665"
     x="92.024712"
     y="125.081" />
  <rect
     style="fill:#008080;stroke:#000000;stroke-width:0.2165827;stroke-opacity:1"
     id="rect12-7-0"
     width="14.183227"
     height="5.2916665"
     x="6.8240194"
     y="144.16879" />
  <rect
     style="fill:#008080;stroke:#000000;stroke-width:0.2165827;stroke-opacity:1"
     id="rect12-3-2-0"
     width="14.183227"
     height="5.2916665"
     x="22.425575"
     y="144.16879" />
  <rect
     style="fill:#008080;stroke:#000000;stroke-width:0.2165827;stroke-opacity:1"
     id="rect12-3-6-2-5"
     width="14.183227"
     height="5.2916665"
     x="38.027122"
     y="144.16879" />
  <rect
     style="fill:#008080;stroke:#000000;stroke-width:0.2165827;stroke-opacity:1"
     id="rect12-3-6-7-16-0"
     width="14.183227"
     height="5.2916665"
     x="53.628685"
     y="144.16879" />
  <rect
     style="fill:#87cdde;stroke:#000000;stroke-width:0.2165827;stroke-opacity:1"
     id="rect12-3-64-9-5-1"
     width="14.183227"
     height="5.2916665"
     x="30.669596"
     y="125.081" />
  <rect
     style="fill:#e9afaf;fill-opacity:1;stroke:#000000;stroke-width:0.2165827;stroke-opacity:1"
     id="rect12-3-64-9-0-7"
     width="14.183227"
     height="5.2916665"
     x="61.632088"
     y="116.06625" />
  <rect
     style="fill:#87cdde;fill-opacity:1;stroke:#000000;stroke-width:0.2165827;stroke-opacity:1"
     id="rect12-3-64-91"
     width="14.183227"
     height="5.2916665"
     x="77.567116"
     y="135.28635" />
  <rect
     style="fill:#e9afaf;fill-opacity:1;stroke:#000000;stroke-width:0.2165827;stroke-opacity:1"
     id="rect12-3-64-7-0"
     width="14.183227"
     height="5.2916665"
     x="108.8673"
     y="135.28635" />
  <rect
     style="fill:#87cdde;stroke:#000000;stroke-width:0.2165827;stroke-opacity:1"
     id="rect12-3-64-5-3"
     width="14.183227"
     height="5.2916665"
     x="15.093361"
     y="135.28635" />
  <rect
     style="fill:#87cdde;stroke:#000000;stroke-width:0.2165827;stroke-opacity:1"
     id="rect12-3-64-7-6-5"
     width="14.183227"
     height="5.2916665"
     x="46.309135"
     y="135.28635" />
  <text
     xml:space="preserve"
     style="font-style:normal;font-variant:normal;font-weight:normal;font-stretch:normal;font-size:4.23333311px;line-height:125%;font-family:'Fira Sans';-inkscape-font-specification:'Fira Sans, Normal';font-variant-ligatures:normal;font-variant-caps:normal;font-variant-numeric:normal;font-feature-settings:normal;text-align:start;letter-spacing:0px;word-spacing:0px;writing-mode:lr-tb;text-anchor:start;fill:#000000;fill-opacity:1;stroke:none;stroke-width:0.26458332px;stroke-linecap:butt;stroke-linejoin:miter;stroke-opacity:1"
     x="7.797225"
     y="119.19409"
     id="text100-5-5-9"><tspan
       style="stroke-width:0.26458332px"
       id="tspan155-8-4"
       x="7.797225"
       y="119.19409">New</tspan></text>
  <path
     inkscape:connector-curvature="0"
     style="fill:none;fill-rule:evenodd;stroke:#000000;stroke-width:0.26458332px;stroke-linecap:butt;stroke-linejoin:miter;stroke-opacity:1"
     d="m 13.109958,144.09383 8.55263,-3.20724 7.34991,2.93997"
     id="path4013-8" />
  <path
     inkscape:connector-curvature="0"
     style="fill:none;fill-rule:evenodd;stroke:#000000;stroke-width:0.26458332px;stroke-linecap:butt;stroke-linejoin:miter;stroke-opacity:1"
     d="m 45.114149,143.70192 8.552619,-3.20724 7.349921,2.93997"
     id="path4013-5-4" />
  <path
     inkscape:connector-curvature="0"
     style="fill:none;fill-rule:evenodd;stroke:#000000;stroke-width:0.26458332px;stroke-linecap:butt;stroke-linejoin:miter;stroke-opacity:1"
     d="m 75.850138,143.96919 8.55263,-3.20724 7.349911,2.93997"
     id="path4013-5-0-6" />
  <path
     inkscape:connector-curvature="0"
     style="fill:none;fill-rule:evenodd;stroke:#000000;stroke-width:0.26458332px;stroke-linecap:butt;stroke-linejoin:miter;stroke-opacity:1"
     d="m 107.52158,143.83556 8.55262,-3.20724 7.34992,2.93997"
     id="path4013-5-9-9" />
  <path
     inkscape:connector-curvature="0"
     style="fill:none;fill-rule:evenodd;stroke:#000000;stroke-width:0.26458332px;stroke-linecap:butt;stroke-linejoin:miter;stroke-opacity:1"
     d="m 22.998938,135.09737 14.699821,-4.50066 15.768899,4.50066"
     id="path4053-2" />
  <path
     inkscape:connector-curvature="0"
     style="fill:none;fill-rule:evenodd;stroke:#000000;stroke-width:0.26458332px;stroke-linecap:butt;stroke-linejoin:miter;stroke-opacity:1"
     d="m 84.873039,135.09737 14.699829,-4.50066 15.768892,4.50066"
     id="path4053-9-9" />
  <path
     inkscape:connector-curvature="0"
     style="fill:none;fill-rule:evenodd;stroke:#000000;stroke-width:0.26458332px;stroke-linecap:butt;stroke-linejoin:miter;stroke-opacity:1"
     d="m 38.099658,124.98405 30.394939,-3.60814 31.077062,3.74178"
     id="path4072-0" />
  <rect
     style="fill:#e6e6e6;stroke:#000000;stroke-width:0.24983597;stroke-opacity:1"
     id="rect3972-4-7"
     width="124.896"
     height="35.497433"
     x="6.2542806"
     y="76.543839" />
  <rect
     style="fill:#008080;stroke:#000000;stroke-width:0.2165827;stroke-opacity:1"
     id="rect12-9-5"
     width="14.183227"
     height="5.2916665"
     x="69.405045"
     y="105.7655" />
  <rect
     style="fill:#008080;stroke:#000000;stroke-width:0.2165827;stroke-opacity:1"
     id="rect12-3-0-3"
     width="14.183227"
     height="5.2916665"
     x="85.006607"
     y="105.7655" />
  <rect
     style="fill:#008080;stroke:#000000;stroke-width:0.2165827;stroke-opacity:1"
     id="rect12-3-6-1-5"
     width="14.183227"
     height="5.2916665"
     x="100.60814"
     y="105.7655" />
  <rect
     style="fill:#87cdde;fill-opacity:1;stroke:#000000;stroke-width:0.2165827;stroke-opacity:1"
     id="rect12-3-64-9-1-7"
     width="14.183227"
     height="5.2916665"
     x="92.199524"
     y="86.677696" />
  <rect
     style="fill:#008080;stroke:#000000;stroke-width:0.2165827;stroke-opacity:1"
     id="rect12-7-0-0"
     width="14.183227"
     height="5.2916665"
     x="6.9988332"
     y="105.7655" />
  <rect
     style="fill:#008080;stroke:#000000;stroke-width:0.2165827;stroke-opacity:1"
     id="rect12-3-2-0-9"
     width="14.183227"
     height="5.2916665"
     x="22.600388"
     y="105.7655" />
  <rect
     style="fill:#008080;stroke:#000000;stroke-width:0.2165827;stroke-opacity:1"
     id="rect12-3-6-2-5-3"
     width="14.183227"
     height="5.2916665"
     x="38.201939"
     y="105.7655" />
  <rect
     style="fill:#008080;stroke:#000000;stroke-width:0.2165827;stroke-opacity:1"
     id="rect12-3-6-7-16-0-6"
     width="14.183227"
     height="5.2916665"
     x="53.803501"
     y="105.7655" />
  <rect
     style="fill:#87cdde;stroke:#000000;stroke-width:0.2165827;stroke-opacity:1"
     id="rect12-3-64-9-5-1-1"
     width="14.183227"
     height="5.2916665"
     x="30.844408"
     y="86.677696" />
  <rect
     style="fill:#87cdde;fill-opacity:1;stroke:#000000;stroke-width:0.2165827;stroke-opacity:1"
     id="rect12-3-64-9-0-7-8"
     width="14.183227"
     height="5.2916665"
     x="61.806904"
     y="77.662949" />
  <rect
     style="fill:#87cdde;fill-opacity:1;stroke:#000000;stroke-width:0.2165827;stroke-opacity:1"
     id="rect12-3-64-91-7"
     width="14.183227"
     height="5.2916665"
     x="77.741928"
     y="96.883049" />
  <rect
     style="fill:#87cdde;fill-opacity:1;stroke:#000000;stroke-width:0.2165827;stroke-opacity:1"
     id="rect12-3-64-7-0-9"
     width="14.183227"
     height="5.2916665"
     x="109.04211"
     y="96.883049" />
  <rect
     style="fill:#87cdde;stroke:#000000;stroke-width:0.2165827;stroke-opacity:1"
     id="rect12-3-64-5-3-2"
     width="14.183227"
     height="5.2916665"
     x="15.268174"
     y="96.883049" />
  <rect
     style="fill:#87cdde;stroke:#000000;stroke-width:0.2165827;stroke-opacity:1"
     id="rect12-3-64-7-6-5-0"
     width="14.183227"
     height="5.2916665"
     x="46.483952"
     y="96.883049" />
  <text
     xml:space="preserve"
     style="font-style:normal;font-variant:normal;font-weight:normal;font-stretch:normal;font-size:4.23333311px;line-height:125%;font-family:'Fira Sans';-inkscape-font-specification:'Fira Sans, Normal';font-variant-ligatures:normal;font-variant-caps:normal;font-variant-numeric:normal;font-feature-settings:normal;text-align:start;letter-spacing:0px;word-spacing:0px;writing-mode:lr-tb;text-anchor:start;fill:#000000;fill-opacity:1;stroke:none;stroke-width:0.26458332px;stroke-linecap:butt;stroke-linejoin:miter;stroke-opacity:1"
     x="7.9720387"
     y="80.790787"
     id="text100-5-5-9-2"><tspan
       style="stroke-width:0.26458332px"
       id="tspan155-8-4-3"
       x="7.9720387"
       y="80.790787">Old </tspan></text>
  <path
     style="fill:none;fill-rule:evenodd;stroke:#000000;stroke-width:0.26458332px;stroke-linecap:butt;stroke-linejoin:miter;stroke-opacity:1"
     d="m 13.284771,105.69052 8.55263,-3.20724 7.34991,2.93997"
     id="path4013-8-7"
     inkscape:connector-curvature="0" />
  <path
     style="fill:none;fill-rule:evenodd;stroke:#000000;stroke-width:0.26458332px;stroke-linecap:butt;stroke-linejoin:miter;stroke-opacity:1"
     d="m 45.288962,105.29861 8.552619,-3.20724 7.349921,2.93997"
     id="path4013-5-4-5"
     inkscape:connector-curvature="0" />
  <path
     style="fill:none;fill-rule:evenodd;stroke:#000000;stroke-width:0.26458332px;stroke-linecap:butt;stroke-linejoin:miter;stroke-opacity:1"
     d="m 76.024951,105.56588 8.55263,-3.20724 7.349911,2.93997"
     id="path4013-5-0-6-9"
     inkscape:connector-curvature="0" />
  <use
     id="use10506-62-8"
     style="fill:#ffffff;stroke:#000006;stroke-width:10.05308056;stroke-miterlimit:4;stroke-dasharray:none;stroke-dashoffset:0;stroke-opacity:1"
     xlink:href="#Extract"
     transform="matrix(0.05086229,0,0,0.05086229,28.977369,85.699)"
     x="0"
     y="0"
     width="100%"
     height="100%" />
  <path
     style="fill:none;fill-rule:evenodd;stroke:#000000;stroke-width:0.26458332px;stroke-linecap:butt;stroke-linejoin:miter;stroke-opacity:1"
     d="m 23.173751,96.694063 14.699821,-4.50066 15.768899,4.50066"
     id="path4053-2-2"
     inkscape:connector-curvature="0" />
  <path
     style="fill:none;fill-rule:evenodd;stroke:#000000;stroke-width:0.26458332px;stroke-linecap:butt;stroke-linejoin:miter;stroke-opacity:1"
     d="m 85.047852,96.694063 14.699829,-4.50066 15.768889,4.50066"
     id="path4053-9-9-8"
     inkscape:connector-curvature="0" />
  <path
     style="fill:none;fill-rule:evenodd;stroke:#000000;stroke-width:0.26458332px;stroke-linecap:butt;stroke-linejoin:miter;stroke-opacity:1"
     d="m 38.274471,86.580743 30.394939,-3.60814 31.077062,3.74178"
     id="path4072-0-9"
     inkscape:connector-curvature="0" />
  <path
     style="fill:none;fill-rule:evenodd;stroke:#000000;stroke-width:0.26458332px;stroke-linecap:butt;stroke-linejoin:miter;stroke-opacity:1"
     d="m 116.15407,102.416 -9.59308,3.37054"
     id="path218"
     inkscape:connector-curvature="0" />
  <use
     id="use10506"
     style="fill:#ffffff;stroke:#000006;stroke-width:10.05308056;stroke-miterlimit:4;stroke-dasharray:none;stroke-dashoffset:0;stroke-opacity:1"
     xlink:href="#Extract"
     transform="matrix(0.05086229,0,0,0.05086229,6.2282081,104.31653)"
     x="0"
     y="0"
     width="100%"
     height="100%" />
  <use
     id="use11637"
     style="fill:#ffffff;stroke:#000000"
     xlink:href="#Decision"
     transform="matrix(0.04486186,0,0,0.04486186,12.288938,105.12265)"
     x="0"
     y="0"
     width="100%"
     height="100%" />
  <use
     id="use11637-3"
     style="fill:#ffffff;stroke:#000000"
     xlink:href="#Decision"
     transform="matrix(0.04486186,0,0,0.04486186,23.340427,104.885)"
     x="0"
     y="0"
     width="100%"
     height="100%" />
  <use
     id="use11694"
     style="fill:#ffffff;stroke:#000000"
     xlink:href="#Connector"
     transform="matrix(0.09790816,0,0,0.09790816,25.454857,101.16579)"
     x="0"
     y="0"
     width="100%"
     height="100%" />
  <use
     id="use10506-6"
     style="fill:#ffffff;stroke:#000006;stroke-width:10.05308056;stroke-miterlimit:4;stroke-dasharray:none;stroke-dashoffset:0;stroke-opacity:1"
     xlink:href="#Extract"
     transform="matrix(0.05086229,0,0,0.05086229,38.250948,104.31653)"
     x="0"
     y="0"
     width="100%"
     height="100%" />
  <use
     id="use11694-7"
     style="fill:#ffffff;stroke:#000000"
     xlink:href="#Connector"
     transform="matrix(0.09790816,0,0,0.09790816,57.477597,101.16579)"
     x="0"
     y="0"
     width="100%"
     height="100%" />
  <use
     id="use11637-3-5"
     style="fill:#ffffff;stroke:#000000"
     xlink:href="#Decision"
     transform="matrix(0.04486186,0,0,0.04486186,69.879838,104.88499)"
     x="0"
     y="0"
     width="100%"
     height="100%" />
  <use
     id="use11637-3-3"
     style="fill:#ffffff;stroke:#000000"
     xlink:href="#Decision"
     transform="matrix(0.04486186,0,0,0.04486186,100.47399,104.75536)"
     x="0"
     y="0"
     width="100%"
     height="100%" />
  <use
     id="use11784"
     style="fill:#ffffff;stroke:#000000"
     xlink:href="#ManualOperation"
     transform="matrix(0.04799595,0,0,0.04799595,43.788868,104.84923)"
     x="0"
     y="0"
     width="100%"
     height="100%" />
  <use
     id="use11784-5"
     style="fill:#ffffff;stroke:#000000"
     xlink:href="#ManualOperation"
     transform="matrix(0.04799595,0,0,0.04799595,84.815835,104.61481)"
     x="0"
     y="0"
     width="100%"
     height="100%" />
  <use
     id="use10506-62"
     style="fill:#ffffff;stroke:#000006;stroke-width:10.05308056;stroke-miterlimit:4;stroke-dasharray:none;stroke-dashoffset:0;stroke-opacity:1"
     xlink:href="#Extract"
     transform="matrix(0.05086229,0,0,0.05086229,14.125553,95.418096)"
     x="0"
     y="0"
     width="100%"
     height="100%" />
  <use
     id="use11637-9"
     style="fill:#ffffff;stroke:#000000"
     xlink:href="#Decision"
     transform="matrix(0.04486186,0,0,0.04486186,19.127949,96.224216)"
     x="0"
     y="0"
     width="100%"
     height="100%" />
  <use
     id="use11694-1"
     style="fill:#ffffff;stroke:#000000"
     xlink:href="#Connector"
     transform="matrix(0.09790816,0,0,0.09790816,20.010291,92.008084)"
     x="0"
     y="0"
     width="100%"
     height="100%" />
  <use
     id="use10506-6-2"
     style="fill:#ffffff;stroke:#000006;stroke-width:10.05308056;stroke-miterlimit:4;stroke-dasharray:none;stroke-dashoffset:0;stroke-opacity:1"
     xlink:href="#Extract"
     transform="matrix(0.05086229,0,0,0.05086229,45.614677,95.509969)"
     x="0"
     y="0"
     width="100%"
     height="100%" />
  <use
     id="use11694-7-7"
     style="fill:#ffffff;stroke:#000000"
     xlink:href="#Connector"
     transform="matrix(0.09790816,0,0,0.09790816,51.22952,92.229593)"
     x="0"
     y="0"
     width="100%"
     height="100%" />
  <use
     id="use11784-0"
     style="fill:#ffffff;stroke:#000000"
     xlink:href="#ManualOperation"
     transform="matrix(0.04799595,0,0,0.04799595,50.094262,96.042669)"
     x="0"
     y="0"
     width="100%"
     height="100%" />
  <use
     id="use11637-3-5-9"
     style="fill:#ffffff;stroke:#000000"
     xlink:href="#Decision"
     transform="matrix(0.04486186,0,0,0.04486186,77.528376,96.069726)"
     x="0"
     y="0"
     width="100%"
     height="100%" />
  <use
     id="use11784-5-3"
     style="fill:#ffffff;stroke:#000000"
     xlink:href="#ManualOperation"
     transform="matrix(0.04799595,0,0,0.04799595,81.269555,95.964304)"
     x="0"
     y="0"
     width="100%"
     height="100%" />
  <use
     id="use11637-3-3-6"
     style="fill:#ffffff;stroke:#000000"
     xlink:href="#Decision"
     transform="matrix(0.04486186,0,0,0.04486186,110.14358,96.198552)"
     x="0"
     y="0"
     width="100%"
     height="100%" />
  <use
     id="use11637-3-5-9-0"
     style="fill:#ffffff;stroke:#000000"
     xlink:href="#Decision"
     transform="matrix(0.03436587,0,0,0.03436587,91.719702,85.982222)"
     x="0"
     y="0"
     width="100%"
     height="100%" />
  <use
     id="use11784-5-3-6"
     style="fill:#ffffff;stroke:#000000"
     xlink:href="#ManualOperation"
     transform="matrix(0.0367667,0,0,0.0367667,94.990948,85.901464)"
     x="0"
     y="0"
     width="100%"
     height="100%" />
  <use
     id="use11694-7-2"
     style="fill:#ffffff;stroke:#000000"
     xlink:href="#Connector"
     transform="matrix(0.09790816,0,0,0.09790816,102.06988,100.90652)"
     x="0"
     y="0"
     width="100%"
     height="100%" />
  <use
     id="use11694-7-2-6"
     style="fill:#ffffff;stroke:#000000"
     xlink:href="#Connector"
     transform="matrix(0.09790816,0,0,0.09790816,111.50145,92.22089)"
     x="0"
     y="0"
     width="100%"
     height="100%" />
  <use
     id="use11694-7-2-6-1"
     style="fill:#ffffff;stroke:#000000"
     xlink:href="#Connector"
     transform="matrix(0.07500132,0,0,0.07500132,95.583571,82.957323)"
     x="0"
     y="0"
     width="100%"
     height="100%" />
  <use
     id="use11637-9-7"
     style="fill:#ffffff;stroke:#000000"
     xlink:href="#Decision"
     transform="matrix(0.04486186,0,0,0.04486186,32.392264,84.917621)"
     x="0"
     y="0"
     width="100%"
     height="100%" />
  <use
     id="use11694-1-9"
     style="fill:#ffffff;stroke:#000000"
     xlink:href="#Connector"
     transform="matrix(0.09790816,0,0,0.09790816,31.631823,82.926548)"
     x="0"
     y="0"
     width="100%"
     height="100%" />
  <use
     id="use11784-0-2"
     style="fill:#ffffff;stroke:#000000"
     xlink:href="#ManualOperation"
     transform="matrix(0.04799595,0,0,0.04799595,38.54818,84.997838)"
     x="0"
     y="0"
     width="100%"
     height="100%" />
  <use
     id="use10506-62-8-0"
     style="fill:#ffffff;stroke:#000006;stroke-width:10.05308056;stroke-miterlimit:4;stroke-dasharray:none;stroke-dashoffset:0;stroke-opacity:1"
     xlink:href="#Extract"
     transform="matrix(0.03582333,0,0,0.03582333,60.505619,77.517928)"
     x="0"
     y="0"
     width="100%"
     height="100%" />
  <use
     id="use11637-9-7-2"
     style="fill:#ffffff;stroke:#000000"
     xlink:href="#Decision"
     transform="matrix(0.0315971,0,0,0.0315971,62.718412,76.760195)"
     x="0"
     y="0"
     width="100%"
     height="100%" />
  <use
     id="use11694-1-9-3"
     style="fill:#ffffff;stroke:#000000"
     xlink:href="#Connector"
     transform="matrix(0.06895867,0,0,0.06895867,66.483948,75.83915)"
     x="0"
     y="0"
     width="100%"
     height="100%" />
  <use
     id="use11784-0-2-7"
     style="fill:#ffffff;stroke:#000000"
     xlink:href="#ManualOperation"
     transform="matrix(0.03380451,0,0,0.03380451,66.242173,77.024086)"
     x="0"
     y="0"
     width="100%"
     height="100%" />
  <use
     id="use10506-62-8-5"
     style="fill:#ffffff;stroke:#000006;stroke-width:10.05308056;stroke-miterlimit:4;stroke-dasharray:none;stroke-dashoffset:0;stroke-opacity:1"
     xlink:href="#Extract"
     transform="matrix(0.05086229,0,0,0.05086229,28.802557,124.10229)"
     x="0"
     y="0"
     width="100%"
     height="100%" />
  <use
     id="use10506-9"
     style="fill:#ffffff;stroke:#000006;stroke-width:10.05308056;stroke-miterlimit:4;stroke-dasharray:none;stroke-dashoffset:0;stroke-opacity:1"
     xlink:href="#Extract"
     transform="matrix(0.05086229,0,0,0.05086229,6.0533962,142.71982)"
     x="0"
     y="0"
     width="100%"
     height="100%" />
  <use
     id="use11637-2"
     style="fill:#ffffff;stroke:#000000"
     xlink:href="#Decision"
     transform="matrix(0.04486186,0,0,0.04486186,12.114126,143.52594)"
     x="0"
     y="0"
     width="100%"
     height="100%" />
  <use
     id="use11637-3-2"
     style="fill:#ffffff;stroke:#000000"
     xlink:href="#Decision"
     transform="matrix(0.04486186,0,0,0.04486186,23.165615,143.28829)"
     x="0"
     y="0"
     width="100%"
     height="100%" />
  <use
     id="use11694-8"
     style="fill:#ffffff;stroke:#000000"
     xlink:href="#Connector"
     transform="matrix(0.09790816,0,0,0.09790816,25.280045,139.56908)"
     x="0"
     y="0"
     width="100%"
     height="100%" />
  <use
     id="use10506-6-9"
     style="fill:#ffffff;stroke:#000006;stroke-width:10.05308056;stroke-miterlimit:4;stroke-dasharray:none;stroke-dashoffset:0;stroke-opacity:1"
     xlink:href="#Extract"
     transform="matrix(0.05086229,0,0,0.05086229,38.076137,142.71982)"
     x="0"
     y="0"
     width="100%"
     height="100%" />
  <use
     id="use11694-7-73"
     style="fill:#ffffff;stroke:#000000"
     xlink:href="#Connector"
     transform="matrix(0.09790816,0,0,0.09790816,57.302785,139.56908)"
     x="0"
     y="0"
     width="100%"
     height="100%" />
  <use
     id="use11637-3-5-6"
     style="fill:#ffffff;stroke:#000000"
     xlink:href="#Decision"
     transform="matrix(0.04486186,0,0,0.04486186,69.705025,143.28828)"
     x="0"
     y="0"
     width="100%"
     height="100%" />
  <use
     id="use11637-3-3-1"
     style="fill:#ffffff;stroke:#000000"
     xlink:href="#Decision"
     transform="matrix(0.04486186,0,0,0.04486186,100.29918,143.15865)"
     x="0"
     y="0"
     width="100%"
     height="100%" />
  <use
     id="use11784-2"
     style="fill:#ffffff;stroke:#000000"
     xlink:href="#ManualOperation"
     transform="matrix(0.04799595,0,0,0.04799595,43.614056,143.25252)"
     x="0"
     y="0"
     width="100%"
     height="100%" />
  <use
     id="use11784-5-9"
     style="fill:#ffffff;stroke:#000000"
     xlink:href="#ManualOperation"
     transform="matrix(0.04799595,0,0,0.04799595,84.641022,143.0181)"
     x="0"
     y="0"
     width="100%"
     height="100%" />
  <use
     id="use10506-62-3"
     style="fill:#ffffff;stroke:#000006;stroke-width:10.05308056;stroke-miterlimit:4;stroke-dasharray:none;stroke-dashoffset:0;stroke-opacity:1"
     xlink:href="#Extract"
     transform="matrix(0.05086229,0,0,0.05086229,13.950741,133.82138)"
     x="0"
     y="0"
     width="100%"
     height="100%" />
  <use
     id="use11637-9-1"
     style="fill:#ffffff;stroke:#000000"
     xlink:href="#Decision"
     transform="matrix(0.04486186,0,0,0.04486186,18.953137,134.6275)"
     x="0"
     y="0"
     width="100%"
     height="100%" />
  <use
     id="use11694-1-94"
     style="fill:#ffffff;stroke:#000000"
     xlink:href="#Connector"
     transform="matrix(0.09790816,0,0,0.09790816,19.835479,130.41137)"
     x="0"
     y="0"
     width="100%"
     height="100%" />
  <use
     id="use10506-6-2-7"
     style="fill:#ffffff;stroke:#000006;stroke-width:10.05308056;stroke-miterlimit:4;stroke-dasharray:none;stroke-dashoffset:0;stroke-opacity:1"
     xlink:href="#Extract"
     transform="matrix(0.05086229,0,0,0.05086229,45.439866,133.91326)"
     x="0"
     y="0"
     width="100%"
     height="100%" />
  <use
     id="use11694-7-7-8"
     style="fill:#ffffff;stroke:#000000"
     xlink:href="#Connector"
     transform="matrix(0.09790816,0,0,0.09790816,51.054707,130.63288)"
     x="0"
     y="0"
     width="100%"
     height="100%" />
  <use
     id="use11784-0-4"
     style="fill:#ffffff;stroke:#000000"
     xlink:href="#ManualOperation"
     transform="matrix(0.04799595,0,0,0.04799595,49.919449,134.44595)"
     x="0"
     y="0"
     width="100%"
     height="100%" />
  <use
     id="use11694-7-2-0"
     style="fill:#ffffff;stroke:#000000"
     xlink:href="#Connector"
     transform="matrix(0.09790816,0,0,0.09790816,101.89507,139.30981)"
     x="0"
     y="0"
     width="100%"
     height="100%" />
  <use
     id="use11637-9-7-20"
     style="fill:#ffffff;stroke:#000000"
     xlink:href="#Decision"
     transform="matrix(0.04486186,0,0,0.04486186,32.217452,123.32091)"
     x="0"
     y="0"
     width="100%"
     height="100%" />
  <use
     id="use11694-1-9-6"
     style="fill:#ffffff;stroke:#000000"
     xlink:href="#Connector"
     transform="matrix(0.09790816,0,0,0.09790816,31.457013,121.32983)"
     x="0"
     y="0"
     width="100%"
     height="100%" />
  <use
     id="use11784-0-2-1"
     style="fill:#ffffff;stroke:#000000"
     xlink:href="#ManualOperation"
     transform="matrix(0.04799595,0,0,0.04799595,38.373369,123.40112)"
     x="0"
     y="0"
     width="100%"
     height="100%" />
  <use
     id="use11784-5-9-6"
     style="fill:#ffffff;stroke:#000000"
     xlink:href="#ManualOperation"
     transform="matrix(0.04799595,0,0,0.04799595,115.84412,143.0181)"
     x="0"
     y="0"
     width="100%"
     height="100%" />
  <use
     id="use11637-3-2-5"
     style="fill:#ffffff;stroke:#000000"
     xlink:href="#Decision"
     transform="matrix(0.04486186,0,0,0.04486186,122.11262,143.24669)"
     x="0"
     y="0"
     width="100%"
     height="100%" />
  <use
     id="use11637-3-5-9-0-6-9"
     style="fill:#ffffff;stroke:#000000"
     xlink:href="#Decision"
     transform="matrix(0.04486186,0,0,0.04486186,107.93303,134.68702)"
     x="0"
     y="0"
     width="100%"
     height="100%" />
  <use
     id="use11784-5-3-6-1-3"
     style="fill:#ffffff;stroke:#000000"
     xlink:href="#ManualOperation"
     transform="matrix(0.04799595,0,0,0.04799595,112.20338,134.5816)"
     x="0"
     y="0"
     width="100%"
     height="100%" />
  <use
     id="use11694-7-2-6-1-3-7"
     style="fill:#ffffff;stroke:#000000"
     xlink:href="#Connector"
     transform="matrix(0.09790816,0,0,0.09790816,112.977,130.73826)"
     x="0"
     y="0"
     width="100%"
     height="100%" />
  <use
     id="use11784-2-4"
     style="fill:#ffffff;stroke:#000000"
     xlink:href="#ManualOperation"
     transform="matrix(0.04799595,0,0,0.04799595,54.995886,143.28154)"
     x="0"
     y="0"
     width="100%"
     height="100%" />
  <use
     id="use11784-2-5"
     style="fill:#ffffff;stroke:#000000"
     xlink:href="#ManualOperation"
     transform="matrix(0.04799595,0,0,0.04799595,54.606977,104.77957)"
     x="0"
     y="0"
     width="100%"
     height="100%" />
  <use
     id="use12230"
     style="fill:#ffffff;stroke:#000000"
     xlink:href="#Merge"
     transform="matrix(0.06573176,0,0,0.06573176,74.235374,142.57179)"
     x="0"
     y="0"
     width="100%"
     height="100%" />
  <use
     id="use12230-2"
     style="fill:#ffffff;stroke:#000000"
     xlink:href="#Merge"
     transform="matrix(0.06573176,0,0,0.06573176,89.878198,142.39735)"
     x="0"
     y="0"
     width="100%"
     height="100%" />
  <use
     id="use12230-5"
     style="fill:#ffffff;stroke:#000000"
     xlink:href="#Merge"
     transform="matrix(0.06573176,0,0,0.06573176,89.866078,103.89555)"
     x="0"
     y="0"
     width="100%"
     height="100%" />
  <use
     id="use12230-4"
     style="fill:#ffffff;stroke:#000000"
     xlink:href="#Merge"
     transform="matrix(0.06573176,0,0,0.06573176,74.029212,104.03581)"
     x="0"
     y="0"
     width="100%"
     height="100%" />
  <use
     id="use12230-7"
     style="fill:#ffffff;stroke:#000000"
     xlink:href="#Merge"
     transform="matrix(0.06573176,0,0,0.06573176,84.466016,94.929401)"
     x="0"
     y="0"
     width="100%"
     height="100%" />
  <use
     id="use12230-44"
     style="fill:#ffffff;stroke:#000000"
     xlink:href="#Merge"
     transform="matrix(0.05035299,0,0,0.05035299,100.30284,85.48901)"
     x="0"
     y="0"
     width="100%"
     height="100%" />
  <use
     id="use12230-7-3"
     style="fill:#ffffff;stroke:#000000"
     xlink:href="#Merge"
     transform="matrix(0.04629619,0,0,0.04629619,70.189775,76.586877)"
     x="0"
     y="0"
     width="100%"
     height="100%" />
  <use
     id="use11637-3-5-9-0-3"
     style="fill:#ffffff;stroke:#000000"
     xlink:href="#Decision"
     transform="matrix(0.03436587,0,0,0.03436587,91.336909,124.96995)"
     x="0"
     y="0"
     width="100%"
     height="100%" />
  <use
     id="use11784-5-3-6-6"
     style="fill:#ffffff;stroke:#000000"
     xlink:href="#ManualOperation"
     transform="matrix(0.0367667,0,0,0.0367667,94.608154,124.88919)"
     x="0"
     y="0"
     width="100%"
     height="100%" />
  <use
     id="use11694-7-2-6-1-7"
     style="fill:#ffffff;stroke:#000000"
     xlink:href="#Connector"
     transform="matrix(0.07500132,0,0,0.07500132,95.200778,121.94505)"
     x="0"
     y="0"
     width="100%"
     height="100%" />
  <use
     id="use12230-44-5"
     style="fill:#ffffff;stroke:#000000"
     xlink:href="#Merge"
     transform="matrix(0.05035299,0,0,0.05035299,99.920047,124.47674)"
     x="0"
     y="0"
     width="100%"
     height="100%" />
  <use
     id="use10506-62-8-0-2"
     style="fill:#ffffff;stroke:#000006;stroke-width:10.05308056;stroke-miterlimit:4;stroke-dasharray:none;stroke-dashoffset:0;stroke-opacity:1"
     xlink:href="#Extract"
     transform="matrix(0.03582333,0,0,0.03582333,60.378271,116.17989)"
     x="0"
     y="0"
     width="100%"
     height="100%" />
  <use
     id="use11637-9-7-2-7"
     style="fill:#ffffff;stroke:#000000"
     xlink:href="#Decision"
     transform="matrix(0.0315971,0,0,0.0315971,62.591066,115.42216)"
     x="0"
     y="0"
     width="100%"
     height="100%" />
  <use
     id="use11694-1-9-3-0"
     style="fill:#ffffff;stroke:#000000"
     xlink:href="#Connector"
     transform="matrix(0.06895867,0,0,0.06895867,66.3566,114.50112)"
     x="0"
     y="0"
     width="100%"
     height="100%" />
  <use
     id="use11784-0-2-7-9"
     style="fill:#ffffff;stroke:#000000"
     xlink:href="#ManualOperation"
     transform="matrix(0.03380451,0,0,0.03380451,66.114827,115.68605)"
     x="0"
     y="0"
     width="100%"
     height="100%" />
  <use
     id="use12230-7-3-3"
     style="fill:#ffffff;stroke:#000000"
     xlink:href="#Merge"
     transform="matrix(0.04629619,0,0,0.04629619,70.062428,115.24884)"
     x="0"
     y="0"
     width="100%"
     height="100%" />
  <use
     id="use11637-3-5-9-6"
     style="fill:#ffffff;stroke:#000000"
     xlink:href="#Decision"
     transform="matrix(0.04486186,0,0,0.04486186,77.253551,134.65523)"
     x="0"
     y="0"
     width="100%"
     height="100%" />
  <use
     id="use11784-5-3-06"
     style="fill:#ffffff;stroke:#000000"
     xlink:href="#ManualOperation"
     transform="matrix(0.04799595,0,0,0.04799595,80.99473,134.5498)"
     x="0"
     y="0"
     width="100%"
     height="100%" />
  <use
     id="use12230-7-2"
     style="fill:#ffffff;stroke:#000000"
     xlink:href="#Merge"
     transform="matrix(0.06573176,0,0,0.06573176,84.191191,133.5149)"
     x="0"
     y="0"
     width="100%"
     height="100%" />
</svg>
